<svg width="30" height="30" viewBox="0 0 30 30" fill="none" xmlns="http://www.w3.org/2000/svg">
<path fill-rule="evenodd" clip-rule="evenodd" d="M17.2922 13.0306L15 5.63124L12.7078 13.0306H5.18339L11.2708 17.6695L8.96599 25.1096L15 20.5114L21.034 25.1096L18.7292 17.6695L24.8166 13.0306H17.2922ZM10.6332 10.0782H1.7108C0.061227 10.0782 -0.629501 12.2642 0.699952 13.2774L7.93436 18.7904L5.18099 27.6785C4.67435 29.314 6.48295 30.6652 7.81747 29.6482L15 24.1747L22.1825 29.6482C23.5171 30.6652 25.3256 29.314 24.819 27.6785L22.0656 18.7904L29.3 13.2774C30.6295 12.2642 29.9388 10.0782 28.2892 10.0782H19.3668L16.6256 1.22945C16.1178 -0.409813 13.8822 -0.409817 13.3744 1.22944L10.6332 10.0782Z" fill="#1B1B1B"/>
</svg>
