<svg width="18" height="18" viewBox="0 0 18 18" fill="none" xmlns="http://www.w3.org/2000/svg">
<path d="M16.0344 7.29763H4.96564L9.77815 2.49972C10.0528 2.22511 10.207 1.85266 10.207 1.4643C10.207 1.07594 10.0528 0.703493 9.77815 0.428884C9.50354 0.154274 9.13109 0 8.74273 0C8.35437 0 7.98192 0.154274 7.70731 0.428884L0.415645 7.72055C0.282877 7.85924 0.178803 8.02279 0.109395 8.2018C-0.0364649 8.55685 -0.0364649 8.95509 0.109395 9.31013C0.178803 9.48915 0.282877 9.65269 0.415645 9.79138L7.70731 17.083C7.84288 17.2197 8.00418 17.3282 8.18189 17.4023C8.3596 17.4763 8.55021 17.5144 8.74273 17.5144C8.93525 17.5144 9.12586 17.4763 9.30357 17.4023C9.48128 17.3282 9.64258 17.2197 9.77815 17.083C9.91483 16.9475 10.0233 16.7862 10.0974 16.6085C10.1714 16.4308 10.2095 16.2402 10.2095 16.0476C10.2095 15.8551 10.1714 15.6645 10.0974 15.4868C10.0233 15.3091 9.91483 15.1478 9.77815 15.0122L4.96564 10.2143H16.0344C16.4212 10.2143 16.7921 10.0607 17.0656 9.78716C17.3391 9.51367 17.4927 9.14274 17.4927 8.75597C17.4927 8.36919 17.3391 7.99826 17.0656 7.72477C16.7921 7.45128 16.4212 7.29763 16.0344 7.29763Z" fill="white"/>
</svg>
