<svg width="95" height="79" viewBox="0 0 95 79" fill="none" xmlns="http://www.w3.org/2000/svg">
<path d="M47.4167 18.5C47.4167 14.1239 45.5027 9.92709 42.0958 6.83274C38.6889 3.73839 34.0681 2 29.25 2H2V63.875H33.7917C37.4052 63.875 40.8708 65.1788 43.426 67.4996C45.9812 69.8203 47.4167 72.9679 47.4167 76.25M47.4167 18.5V76.25M47.4167 18.5C47.4167 14.1239 49.3306 9.92709 52.7376 6.83274C56.1445 3.73839 60.7652 2 65.5833 2H92.8333V63.875H61.0417C57.4281 63.875 53.9625 65.1788 51.4073 67.4996C48.8522 69.8203 47.4167 72.9679 47.4167 76.25" stroke="#1E1E1E" stroke-width="4" stroke-linecap="round" stroke-linejoin="round"/>
</svg>
