<svg width="20" height="20" viewBox="0 0 20 20" fill="none" xmlns="http://www.w3.org/2000/svg">
  <path d="M17.3667 3.84166C16.9412 3.41533 16.4387 3.07485 15.8865 2.83873C15.3344 2.60261 14.7431 2.47559 14.1453 2.46439C13.5474 2.45319 12.9517 2.55801 12.3911 2.77298C11.8305 2.98795 11.3157 3.30896 10.875 3.71833L10 4.59333L9.125 3.71833C8.25868 2.85201 7.09133 2.36719 5.875 2.36719C4.65867 2.36719 3.49132 2.85201 2.625 3.71833C1.75868 4.58465 1.27386 5.752 1.27386 6.96833C1.27386 8.18466 1.75868 9.35201 2.625 10.2183L3.5 11.0933L10 17.5933L16.5 11.0933L17.375 10.2183C17.7844 9.77767 18.1054 9.26286 18.3205 8.70228C18.5357 8.14169 18.6409 7.54595 18.6297 6.94811C18.6185 6.35027 18.4911 5.75897 18.255 5.20683C18.0189 4.65468 17.6784 4.15222 17.2521 3.72666L17.3667 3.84166Z" stroke="currentColor" stroke-width="2" stroke-linecap="round" stroke-linejoin="round"/>
</svg>
