<svg width="27" height="30" viewBox="0 0 27 30" fill="none" xmlns="http://www.w3.org/2000/svg">
<path d="M22.5 30C21.25 30 20.1875 29.5625 19.3125 28.6875C18.4375 27.8125 18 26.75 18 25.5C18 25.35 18.0375 25 18.1125 24.45L7.575 18.3C7.175 18.675 6.7125 18.9688 6.1875 19.1813C5.6625 19.3938 5.1 19.5 4.5 19.5C3.25 19.5 2.1875 19.0625 1.3125 18.1875C0.4375 17.3125 0 16.25 0 15C0 13.75 0.4375 12.6875 1.3125 11.8125C2.1875 10.9375 3.25 10.5 4.5 10.5C5.1 10.5 5.6625 10.6062 6.1875 10.8188C6.7125 11.0312 7.175 11.325 7.575 11.7L18.1125 5.55C18.0625 5.375 18.0312 5.20625 18.0187 5.04375C18.0063 4.88125 18 4.7 18 4.5C18 3.25 18.4375 2.1875 19.3125 1.3125C20.1875 0.4375 21.25 0 22.5 0C23.75 0 24.8125 0.4375 25.6875 1.3125C26.5625 2.1875 27 3.25 27 4.5C27 5.75 26.5625 6.8125 25.6875 7.6875C24.8125 8.5625 23.75 9 22.5 9C21.9 9 21.3375 8.89375 20.8125 8.68125C20.2875 8.46875 19.825 8.175 19.425 7.8L8.8875 13.95C8.9375 14.125 8.96875 14.2937 8.98125 14.4562C8.99375 14.6187 9 14.8 9 15C9 15.2 8.99375 15.3813 8.98125 15.5438C8.96875 15.7063 8.9375 15.875 8.8875 16.05L19.425 22.2C19.825 21.825 20.2875 21.5312 20.8125 21.3188C21.3375 21.1063 21.9 21 22.5 21C23.75 21 24.8125 21.4375 25.6875 22.3125C26.5625 23.1875 27 24.25 27 25.5C27 26.75 26.5625 27.8125 25.6875 28.6875C24.8125 29.5625 23.75 30 22.5 30Z" fill="#FEF7FF"/>
</svg>
