<svg width="68" height="69" viewBox="0 0 68 69" fill="none" xmlns="http://www.w3.org/2000/svg">
<path d="M24.4517 24.75C25.1962 22.5779 26.6656 20.7463 28.5999 19.5797C30.5341 18.413 32.8082 17.9865 35.0194 18.3758C37.2306 18.7651 39.2363 19.945 40.6811 21.7065C42.1259 23.468 42.9167 25.6974 42.9133 28C42.9133 34.5 33.4133 37.75 33.4133 37.75M33.6667 50.75H33.6983M65.3333 34.5C65.3333 52.4493 51.1557 67 33.6667 67C16.1776 67 2 52.4493 2 34.5C2 16.5507 16.1776 2 33.6667 2C51.1557 2 65.3333 16.5507 65.3333 34.5Z" stroke="#1E1E1E" stroke-width="4" stroke-linecap="round" stroke-linejoin="round"/>
</svg>
