<svg width="32" height="33" viewBox="0 0 32 33" fill="none" xmlns="http://www.w3.org/2000/svg">
<path d="M16 0C21.1544 0.000175745 25.3338 4.17861 25.334 9.33301C25.334 12.7605 23.4841 15.7538 20.7305 17.377C27.2578 19.3941 32 25.4772 32 32.667H30C30 24.935 23.732 18.667 16 18.667C8.26801 18.667 2 24.935 2 32.667H0C7.86312e-07 25.4775 4.74169 19.3944 11.2686 17.377C8.5154 15.7538 6.66699 12.7602 6.66699 9.33301C6.66717 4.17861 10.8456 0.00017626 16 0ZM16 2C11.9502 2.00018 8.66717 5.28318 8.66699 9.33301C8.66699 13.383 11.9501 16.6668 16 16.667C20.0499 16.6668 23.334 13.383 23.334 9.33301C23.3338 5.28318 20.0498 2.00018 16 2Z" fill="#1B1B1B"/>
</svg>
